<svg width="135" height="52" viewBox="0 0 135 52" fill="none" xmlns="http://www.w3.org/2000/svg">
<path fill-rule="evenodd" clip-rule="evenodd" d="M41.4 19.1V40.6L40.4 41.2L21.9 51.4L20.9 51.9L19.9 51.4L5.80002 43.5L2.60002 41.8L5.80002 40L9.60002 37.9L1.70001 33.5L0.700012 32.9V11.4L1.70001 10.8L20.2 0.599976L21.2 0.0999756L22.2 0.599976L36.3 8.39998L39.5 10.2L36.3 12L32.5 14.1L40.4 18.5L41.4 19.1ZM25.7 13.3V31.3L38.9 38.6V20.6L25.7 13.3ZM28.2 13.6L34.3 10.2L21.1 2.89998L3.60002 12.6L16.8 19.9L24.8 15.5V11.8L28.2 13.6ZM20.3 22.8L3.10002 13.3V31.4L20.3 40.9V22.8ZM7.70001 41.7L20.9 49L38.4 39.3L25.2 32L21.2 34.2V42.4L13.8 38.3L7.70001 41.7Z" fill="white"/>
<path d="M62.4 24.6H49.1V22H59.9V20.2H49.1V13.3H62.4V15.8H51.7V17.6H62.4V24.6Z" fill="white"/>
<path fill-rule="evenodd" clip-rule="evenodd" d="M118 24.6H104.7V17.6H118V24.6ZM107.3 22.1H115.5V20.3H107.3V22.1Z" fill="white"/>
<path d="M118 15.8H104.7V13.3H118V15.8Z" fill="white"/>
<path d="M68.3 24.6H65.7V13.3H68.3V24.6Z" fill="white"/>
<path d="M68.3 40.4H65.7V29.2H68.3V40.4Z" fill="white"/>
<path d="M84.9 24.6H82.3V15.8H74.1V24.6H71.6V13.3H84.9V24.6Z" fill="white"/>
<path d="M62.4 40.5H49.1V29.2H54.4V31.7H51.7V37.9H59.9V31.7H57.1V29.2H62.4V40.5Z" fill="white"/>
<path d="M134.6 24.6H132V15.8H123.8V24.6H121.3V13.3H134.6V24.6Z" fill="white"/>
<path fill-rule="evenodd" clip-rule="evenodd" d="M101.4 24.5999H88.1V13.2999H98.9V9.19995H101.4V24.5999ZM90.7 22.0999H98.9V15.7999H90.7V22.0999Z" fill="white"/>
<path d="M57 36.1H54.5V33.6H57V36.1Z" fill="white"/>
<path d="M132 29.2V37.9H129.2V29.2H126.7V37.9H123.8V29.2H121.3V37.9H104.3V34H101.8V37.9H84.9V29.2H71.6V34.3H74.1V31.7H82.3V37.9H71.6V40.5H84.7H84.9H134.6V29.2H132Z" fill="white"/>
<path d="M104.3 29.2H101.8V32H104.3V29.2Z" fill="white"/>
</svg>
